<svg width="754" height="758" viewBox="0 0 754 758" fill="none" xmlns="http://www.w3.org/2000/svg">
<g opacity="0.1">
<path d="M540.239 234.249L484.243 262.778L213.848 400.504C212.933 393.53 212.473 386.504 212.47 379.471C212.507 351.408 219.875 323.842 233.844 299.503C247.813 275.163 267.898 254.896 292.11 240.707C316.321 226.519 343.82 218.902 371.881 218.611C399.943 218.321 427.593 225.366 452.094 239.049L484.145 222.719L488.926 220.279C459.565 198.969 424.884 186.191 388.716 183.359C352.547 180.526 316.3 187.749 283.98 204.229C251.66 220.708 224.525 245.804 205.576 276.74C186.626 307.677 176.599 343.251 176.602 379.53C176.602 384.541 176.793 389.532 177.173 394.503C177.706 401.543 176.144 408.583 172.685 414.738C169.227 420.892 164.025 425.887 157.734 429.092L140.833 437.71V477.906L190.591 452.545L206.705 444.32L222.583 436.234L507.637 290.992L539.668 274.681L605.875 240.938V200.762L540.239 234.249Z" stroke="white" stroke-width="2"/>
<path d="M605.875 281.162L238.776 468.076L206.745 484.426L140.833 518.011V558.168L206.292 524.819L262.288 496.29L532.959 358.367C533.874 365.387 534.334 372.458 534.336 379.537C534.319 407.633 526.953 435.235 512.971 459.604C498.988 483.973 478.875 504.26 454.629 518.453C430.382 532.646 402.844 540.25 374.75 540.511C346.656 540.772 318.982 533.68 294.476 519.939L292.509 520.982L257.762 538.69C287.116 560.001 321.79 572.782 357.953 575.621C394.116 578.461 430.36 571.248 462.68 554.779C495 538.311 522.138 513.228 541.096 482.302C560.054 451.376 570.094 415.811 570.106 379.537C570.106 374.481 569.909 369.424 569.535 364.427C569.003 357.389 570.563 350.352 574.018 344.198C577.473 338.044 582.669 333.048 588.954 329.838L605.875 321.22V281.162Z" stroke="white" stroke-width="2"/>
</g>
<path d="M12.8994 379.553C12.8994 330.342 22.5415 282.619 41.5436 237.665C59.9046 194.25 86.1896 155.272 119.655 121.806C153.12 88.3411 192.099 62.0561 235.514 43.6951C280.442 24.693 328.191 15.0509 377.402 15.0509C426.612 15.0509 474.335 24.693 519.289 43.6951C562.704 62.0561 601.683 88.3411 635.148 121.806C668.613 155.272 694.898 194.25 713.259 237.665C732.261 282.593 741.904 330.342 741.904 379.553C741.904 428.764 732.261 476.487 713.259 521.441C694.898 564.856 668.613 603.834 635.148 637.3C601.683 670.765 562.704 697.05 519.289 715.411C474.361 734.413 426.612 744.055 377.402 744.055C328.191 744.055 280.468 734.413 235.514 715.411C192.099 697.05 153.12 670.765 119.655 637.3C86.1896 603.834 59.9046 564.856 41.5436 521.441C22.5415 476.512 12.8994 428.764 12.8994 379.553ZM738.852 379.553C738.852 283.004 701.258 192.25 632.994 123.96C564.73 55.6964 473.951 18.1025 377.402 18.1025C280.852 18.1025 190.099 55.6964 121.809 123.96C53.545 192.224 15.951 283.004 15.951 379.553C15.951 476.102 53.545 566.856 121.809 635.146C190.073 703.41 280.852 741.003 377.402 741.003C473.951 741.003 564.704 703.41 632.994 635.146C701.258 566.882 738.852 476.102 738.852 379.553Z" fill="url(#paint0_linear_2391_4152)"/>
<path d="M375.638 755.665C367.535 756.947 359.919 751.408 358.662 743.304C357.38 735.201 362.919 727.585 371.022 726.328C379.126 725.046 386.742 730.585 387.999 738.688C389.281 746.792 383.742 754.408 375.638 755.665Z" fill="#191919"/>
<path d="M356.916 740.945C356.916 737.509 357.993 734.175 360.07 731.329C362.66 727.79 366.456 725.456 370.764 724.789C375.098 724.097 379.431 725.148 382.97 727.738C386.509 730.328 388.843 734.124 389.509 738.432C390.202 742.766 389.15 747.1 386.56 750.638C383.996 754.177 380.175 756.511 375.867 757.178C371.533 757.87 367.199 756.819 363.66 754.229C360.122 751.639 357.788 747.843 357.121 743.535C356.993 742.663 356.916 741.817 356.916 740.945ZM386.637 740.996C386.637 740.304 386.586 739.586 386.483 738.893C385.919 735.38 384.047 732.277 381.149 730.175C378.277 728.072 374.739 727.226 371.225 727.79C367.712 728.354 364.609 730.226 362.506 733.124C360.404 735.996 359.557 739.535 360.121 743.048C360.686 746.561 362.558 749.664 365.455 751.767C368.328 753.87 371.866 754.716 375.38 754.152C378.893 753.587 381.996 751.715 384.099 748.818C385.765 746.51 386.663 743.791 386.663 740.996H386.637Z" fill="url(#paint1_linear_2391_4152)"/>
<path d="M375.154 29.521C367.05 30.8032 359.434 25.2642 358.178 17.1607C356.895 9.05723 362.434 1.44101 370.538 0.18446C378.641 -1.09773 386.258 4.44134 387.514 12.5448C388.796 20.6483 383.257 28.2645 375.154 29.521Z" fill="url(#paint2_linear_2391_4152)"/>
<path d="M746.252 353.97C749.253 356.149 751.202 359.355 751.766 362.996C751.868 363.714 751.92 364.432 751.92 365.15H724.25C724.25 362.227 725.173 359.381 726.917 356.996C729.097 354.021 732.302 352.046 735.944 351.482C739.585 350.918 743.252 351.79 746.227 353.97H746.252Z" fill="#191919"/>
<path d="M735.665 349.482C731.46 350.123 727.793 352.38 725.28 355.816C722.792 359.252 721.766 363.432 722.433 367.638C723.1 371.818 725.357 375.511 728.767 378.024C732.203 380.511 736.383 381.537 740.589 380.87C744.769 380.229 748.462 377.972 750.949 374.536C752.949 371.792 754.001 368.561 754.001 365.227C754.001 364.407 753.95 363.56 753.796 362.74C753.129 358.56 750.872 354.867 747.462 352.354C744.025 349.867 739.845 348.841 735.64 349.508L735.665 349.482ZM746.282 353.97C749.282 356.149 751.231 359.355 751.795 362.996C751.898 363.714 751.949 364.432 751.949 365.15H724.28C724.28 362.227 725.203 359.381 726.947 356.996C729.126 354.021 732.332 352.046 735.973 351.482C739.615 350.918 743.282 351.79 746.256 353.97H746.282Z" fill="url(#paint3_linear_2391_4152)"/>
<path d="M103.643 640.481C101.182 635.814 101.566 630.147 104.695 625.864C106.874 622.89 110.08 620.915 113.721 620.351C117.388 619.787 121.03 620.659 124.03 622.838C127.723 625.531 129.723 629.736 129.723 634.019C129.723 636.199 129.185 638.43 128.108 640.481C127.184 639.148 126.03 637.917 124.62 636.891C117.978 632.07 108.67 633.532 103.848 640.174C103.772 640.276 103.695 640.404 103.643 640.533V640.481Z" fill="#191919"/>
<path d="M118.34 649.713C122.519 649.046 126.212 646.79 128.7 643.379C129.007 642.943 129.315 642.482 129.623 641.969C133.7 634.917 131.803 625.993 125.212 621.197C121.776 618.71 117.596 617.684 113.39 618.351C109.21 618.992 105.518 621.248 103.004 624.685C100.979 627.454 99.9785 630.737 99.9785 634.019C99.9785 636.737 100.671 639.481 102.107 641.969C103.21 643.892 104.697 645.533 106.518 646.867C109.262 648.867 112.518 649.918 115.852 649.918C116.673 649.918 117.493 649.867 118.34 649.713ZM104.671 625.864C106.851 622.89 110.057 620.915 113.698 620.351C117.365 619.787 121.007 620.659 124.007 622.838C127.7 625.531 129.7 629.737 129.7 634.019C129.7 636.199 129.161 638.43 128.084 640.481C127.161 639.148 126.007 637.917 124.597 636.891C117.955 632.07 108.646 633.532 103.825 640.174C103.748 640.276 103.671 640.404 103.62 640.533C101.158 635.865 101.543 630.198 104.671 625.916V625.864Z" fill="url(#paint4_linear_2391_4152)"/>
<path d="M107.944 107.266C105.482 111.934 105.867 117.601 108.996 121.883C111.175 124.858 114.381 126.833 118.022 127.397C121.689 127.961 125.331 127.089 128.331 124.909C132.024 122.217 134.024 118.011 134.024 113.729C134.024 111.549 133.485 109.318 132.408 107.266C131.485 108.6 130.331 109.831 128.921 110.857C122.279 115.678 112.97 114.216 108.149 107.574C108.072 107.472 107.995 107.343 107.944 107.215V107.266Z" fill="#191919"/>
<path d="M120.153 97.8293C116.819 97.8293 113.562 98.8807 110.818 100.881C108.998 102.214 107.51 103.856 106.408 105.779C104.972 108.241 104.279 110.985 104.279 113.729C104.279 117.037 105.305 120.319 107.305 123.063C109.793 126.499 113.485 128.756 117.691 129.397C121.897 130.064 126.077 129.038 129.513 126.55C136.103 121.755 138.001 112.831 133.924 105.779C133.616 105.266 133.334 104.779 133 104.369C130.513 100.932 126.82 98.7012 122.64 98.0345C121.794 97.9063 120.973 97.8293 120.153 97.8293ZM107.946 107.266C107.946 107.266 108.075 107.497 108.152 107.625C112.973 114.267 122.281 115.729 128.923 110.908C130.333 109.882 131.487 108.651 132.411 107.318C133.513 109.369 134.026 111.574 134.026 113.78C134.026 118.062 132.026 122.268 128.333 124.961C125.333 127.14 121.691 128.012 118.024 127.448C114.383 126.858 111.177 124.909 108.998 121.935C105.869 117.652 105.51 111.985 107.946 107.318V107.266Z" fill="url(#paint5_linear_2391_4152)"/>
<path d="M655.972 624.364C658.434 629.031 658.049 634.698 654.921 638.981C652.741 641.955 649.536 643.93 645.894 644.494C642.227 645.058 638.586 644.186 635.586 642.007C631.893 639.314 629.893 635.108 629.893 630.826C629.893 628.646 630.431 626.415 631.508 624.364C632.431 625.697 633.585 626.928 634.996 627.954C641.637 632.775 650.946 631.313 655.767 624.671C655.844 624.569 655.921 624.441 655.972 624.312V624.364Z" fill="#191919"/>
<path d="M641.255 615.132C637.075 615.799 633.382 618.055 630.895 621.466C630.587 621.902 630.28 622.364 629.972 622.876C625.894 629.929 627.792 638.853 634.383 643.648C637.819 646.135 641.999 647.161 646.204 646.494C650.384 645.853 654.077 643.597 656.59 640.16C658.616 637.391 659.616 634.108 659.616 630.826C659.616 628.082 658.924 625.364 657.488 622.876C656.385 620.953 654.898 619.312 653.077 617.978C650.333 615.978 647.076 614.927 643.743 614.927C642.922 614.927 642.101 614.978 641.255 615.132ZM654.923 638.981C652.744 641.955 649.538 643.93 645.897 644.494C642.23 645.058 638.588 644.186 635.588 642.007C631.895 639.314 629.895 635.109 629.895 630.826C629.895 628.646 630.433 626.415 631.51 624.364C632.434 625.697 633.588 626.928 634.998 627.954C641.64 632.775 650.949 631.313 655.77 624.671C655.846 624.569 655.923 624.441 655.975 624.312C658.436 628.98 658.052 634.647 654.923 638.929V638.981Z" fill="url(#paint6_linear_2391_4152)"/>
<path d="M615.368 120.159C612.906 115.492 613.291 109.825 616.419 105.542C618.599 102.567 621.805 100.593 625.446 100.029C629.113 99.4644 632.754 100.336 635.755 102.516C639.447 105.209 641.448 109.414 641.448 113.697C641.448 115.876 640.909 118.107 639.832 120.159C638.909 118.825 637.755 117.595 636.345 116.569C629.703 111.748 620.394 113.21 615.573 119.851C615.496 119.954 615.419 120.082 615.368 120.21V120.159Z" fill="#191919"/>
<path d="M630.064 129.391C634.244 128.724 637.937 126.467 640.424 123.057C640.732 122.621 641.04 122.159 641.347 121.646C645.425 114.594 643.527 105.67 636.937 100.875C633.5 98.3872 629.32 97.3614 625.115 98.0281C620.935 98.6692 617.242 100.926 614.729 104.362C612.703 107.132 611.703 110.414 611.703 113.697C611.703 116.415 612.395 119.159 613.832 121.646C614.934 123.569 616.422 125.211 618.242 126.544C620.986 128.544 624.243 129.596 627.577 129.596C628.397 129.596 629.218 129.544 630.064 129.391ZM616.396 105.542C618.576 102.567 621.781 100.593 625.423 100.028C629.09 99.4642 632.731 100.336 635.731 102.516C639.424 105.208 641.424 109.414 641.424 113.697C641.424 115.876 640.886 118.107 639.809 120.159C638.886 118.825 637.732 117.594 636.321 116.569C629.679 111.748 620.371 113.209 615.55 119.851C615.473 119.954 615.396 120.082 615.345 120.21C612.883 115.543 613.267 109.876 616.396 105.593V105.542Z" fill="url(#paint7_linear_2391_4152)"/>
<path d="M377.343 699.855C291.78 699.855 211.324 666.533 150.813 606.022C90.3023 545.511 56.9795 465.082 56.9795 379.492C56.9795 293.901 90.3023 213.472 150.813 152.961C211.324 92.4504 291.753 59.1276 377.343 59.1276C462.934 59.1276 543.363 92.4504 603.874 152.961C664.385 213.472 697.707 293.901 697.707 379.492C697.707 465.082 664.385 545.511 603.874 606.022C543.363 666.533 462.934 699.855 377.343 699.855ZM377.343 62.3707C292.645 62.3707 213 95.3692 153.11 155.258C93.2211 215.148 60.2226 294.793 60.2226 379.492C60.2226 464.19 93.2211 543.836 153.11 603.725C213 663.614 292.645 696.612 377.343 696.612C462.042 696.612 541.687 663.614 601.577 603.725C661.466 543.836 694.464 464.19 694.464 379.492C694.464 294.793 661.466 215.148 601.577 155.258C541.687 95.3692 462.042 62.3707 377.343 62.3707Z" fill="url(#paint8_linear_2391_4152)"/>
<path d="M7.71905 378.614C4.71872 376.434 2.76978 373.229 2.20561 369.587C2.10304 368.869 2.05176 368.151 2.05176 367.433H29.7215C29.7215 370.357 28.7983 373.203 27.0545 375.588C24.8748 378.563 21.6693 380.537 18.0279 381.101C14.3865 381.666 10.7194 380.794 7.7447 378.614H7.71905Z" fill="#191919"/>
<path d="M18.3354 383.127C22.5409 382.486 26.208 380.229 28.7211 376.793C31.2086 373.357 32.2343 369.177 31.5676 364.971C30.9009 360.791 28.6442 357.099 25.2336 354.586C21.7973 352.098 17.6173 351.072 13.4117 351.739C9.23178 352.38 5.53906 354.637 3.05161 358.073C1.05139 360.817 0 364.048 0 367.382C0 368.202 0.0512729 369.049 0.205136 369.869C0.871877 374.049 3.12854 377.742 6.53918 380.255C9.97546 382.743 14.1554 383.768 18.361 383.102L18.3354 383.127ZM7.71879 378.64C4.71846 376.46 2.76952 373.254 2.20536 369.613C2.10278 368.895 2.0515 368.177 2.0515 367.459H29.7212C29.7212 370.382 28.7981 373.229 27.0543 375.614C24.8745 378.588 21.6691 380.563 18.0276 381.127C14.3862 381.691 10.7191 380.819 7.74444 378.64H7.71879Z" fill="url(#paint9_linear_2391_4152)"/>
<defs>
<linearGradient id="paint0_linear_2391_4152" x1="693.155" y1="561.855" x2="61.6484" y2="197.276" gradientUnits="userSpaceOnUse">
<stop stop-color="#D7B676"/>
<stop offset="0.54"/>
<stop offset="1" stop-color="#C5A76E"/>
</linearGradient>
<linearGradient id="paint1_linear_2391_4152" x1="373.328" y1="724.61" x2="373.328" y2="757.383" gradientUnits="userSpaceOnUse">
<stop stop-color="#AB8D60"/>
<stop offset="0.07" stop-color="#B19465"/>
<stop offset="0.51" stop-color="#DBC087"/>
<stop offset="1" stop-color="#AB8D60"/>
</linearGradient>
<linearGradient id="paint2_linear_2391_4152" x1="372.846" y1="-0.0206913" x2="372.846" y2="29.7262" gradientUnits="userSpaceOnUse">
<stop stop-color="#AB8D60"/>
<stop offset="0.07" stop-color="#B19465"/>
<stop offset="0.51" stop-color="#DBC087"/>
<stop offset="1" stop-color="#AB8D60"/>
</linearGradient>
<linearGradient id="paint3_linear_2391_4152" x1="749.359" y1="376.382" x2="726.895" y2="353.918" gradientUnits="userSpaceOnUse">
<stop stop-color="#AB8D60"/>
<stop offset="0.07" stop-color="#B19465"/>
<stop offset="0.51" stop-color="#DBC087"/>
<stop offset="1" stop-color="#AB8D60"/>
</linearGradient>
<linearGradient id="paint4_linear_2391_4152" x1="104.646" y1="622.787" x2="127.11" y2="645.251" gradientUnits="userSpaceOnUse">
<stop stop-color="#AB8D60"/>
<stop offset="0.07" stop-color="#B19465"/>
<stop offset="0.51" stop-color="#DBC087"/>
<stop offset="1" stop-color="#AB8D60"/>
</linearGradient>
<linearGradient id="paint5_linear_2391_4152" x1="108.946" y1="124.961" x2="131.411" y2="102.497" gradientUnits="userSpaceOnUse">
<stop stop-color="#AB8D60"/>
<stop offset="0.07" stop-color="#B19465"/>
<stop offset="0.51" stop-color="#DBC087"/>
<stop offset="1" stop-color="#AB8D60"/>
</linearGradient>
<linearGradient id="paint6_linear_2391_4152" x1="654.949" y1="642.084" x2="632.485" y2="619.62" gradientUnits="userSpaceOnUse">
<stop stop-color="#AB8D60"/>
<stop offset="0.07" stop-color="#B19465"/>
<stop offset="0.51" stop-color="#DBC087"/>
<stop offset="1" stop-color="#AB8D60"/>
</linearGradient>
<linearGradient id="paint7_linear_2391_4152" x1="616.37" y1="102.465" x2="638.834" y2="124.929" gradientUnits="userSpaceOnUse">
<stop stop-color="#AB8D60"/>
<stop offset="0.07" stop-color="#B19465"/>
<stop offset="0.51" stop-color="#DBC087"/>
<stop offset="1" stop-color="#AB8D60"/>
</linearGradient>
<linearGradient id="paint8_linear_2391_4152" x1="150.825" y1="605.989" x2="603.869" y2="152.945" gradientUnits="userSpaceOnUse">
<stop stop-color="#D7B676"/>
<stop offset="0.08" stop-color="#BCA069"/>
<stop offset="0.25" stop-color="#8B7750"/>
<stop offset="0.41" stop-color="#62553C"/>
<stop offset="0.57" stop-color="#423B2D"/>
<stop offset="0.73" stop-color="#2B2822"/>
<stop offset="0.87" stop-color="#1D1C1B"/>
<stop offset="1" stop-color="#191919"/>
</linearGradient>
<linearGradient id="paint9_linear_2391_4152" x1="4.64154" y1="356.201" x2="27.1056" y2="378.665" gradientUnits="userSpaceOnUse">
<stop stop-color="#AB8D60"/>
<stop offset="0.07" stop-color="#B19465"/>
<stop offset="0.51" stop-color="#DBC087"/>
<stop offset="1" stop-color="#AB8D60"/>
</linearGradient>
</defs>
</svg>
