<svg width="102" height="24" viewBox="0 0 102 24" fill="none" xmlns="http://www.w3.org/2000/svg">
<path d="M30.381 5.97143V8.40248L29.2974 8.92546C28.4744 9.32379 27.9841 10.1513 28.0537 11.0246C28.0777 11.3279 28.0903 11.6347 28.0903 11.9416C28.0888 16.4301 25.431 20.5387 21.2107 22.5765C16.9905 24.6143 11.9207 24.2371 8.08779 21.6001L10.3129 20.5255L10.4389 20.4622C13.6323 22.159 17.5355 22.1246 20.6951 20.372C23.8547 18.6194 25.7973 15.411 25.7996 11.9416C25.7995 11.512 25.77 11.0828 25.7114 10.6568L8.37759 19.027L4.79163 20.7583L0.599609 22.7822V20.3452L4.82061 18.307L6.87189 17.3147L30.381 5.97143ZM87.4804 7.62158C91.1747 7.62158 92.7409 9.22039 92.7157 12.7679L92.6917 15.6431C92.6665 17.7493 92.7648 19.1631 93.0332 20.3487H90.7828C90.6877 19.7812 90.6305 19.2085 90.6115 18.6341C89.8051 19.9344 88.4594 20.6508 86.1108 20.6508C83.6399 20.6508 81.5848 19.3517 81.5848 17.0568C81.5848 14.1076 85.1078 13.2323 90.4893 12.6747V12.3738C90.4893 10.0789 89.1688 9.3374 87.5043 9.3374C85.6458 9.3374 84.5937 10.2652 84.4954 11.8174H82.1959C82.3912 9.12845 84.9364 7.62158 87.4804 7.62158ZM65.7907 7.66457C69.8265 7.66457 72.2004 10.8407 71.9307 14.8049H61.8028C61.8759 17.4938 63.931 18.7917 65.8638 18.7917C67.8219 18.7917 68.8979 17.9571 69.4599 16.7284H71.7594C71.1722 18.8622 69.0693 20.6473 65.8638 20.6473C61.7046 20.6473 59.4051 17.8186 59.4051 14.1326C59.4051 10.172 62.1947 7.66457 65.7907 7.66457ZM44.7853 3.23591C47.9857 3.23591 50.803 4.60188 51.5137 7.82576H49.0907C48.5035 5.90218 46.451 5.22994 44.687 5.22994C43.3136 5.22994 40.9196 5.80904 40.9196 7.68725C40.9196 9.17143 42.1481 9.91173 43.8176 10.2604L45.8664 10.701C48.5829 11.2574 51.8362 12.2317 51.8362 15.6156C51.8362 18.8849 48.6119 20.6473 45.0839 20.6473C40.9007 20.6473 38.2585 18.4729 37.7935 15.1296H40.2455C40.7104 17.4473 42.3736 18.6532 45.1381 18.6532C47.7803 18.6532 49.2721 17.4962 49.2721 15.8246C49.2721 14.0395 47.682 13.3446 45.4556 12.8574L43.2443 12.4168C40.7974 11.907 38.3757 10.6079 38.3757 7.82576C38.3757 4.60427 41.9226 3.23591 44.7853 3.23591ZM56.6167 4.74278V7.87233H59.1115V9.56546H56.6167V16.9613C56.6167 18.2592 56.7137 18.584 57.9863 18.584H59.1115V20.3452H57.4974C54.9774 20.3452 54.3903 19.8126 54.3903 17.2156V9.56546H52.31V7.87233H54.3903V4.74278H56.6167ZM100.731 7.80307C100.951 7.80011 101.171 7.80768 101.391 7.82576V10.0801C100.978 10.0182 100.561 9.98707 100.143 9.98696C98.0883 9.98696 97.0602 11.0258 97.0602 13.8079V20.3452H94.8337V7.87233H97.0123V10.0514C97.6725 8.6389 98.993 7.87233 100.731 7.80307ZM75.6553 3.52845V20.3452H73.4289V3.52845H75.6553ZM80.1069 3.52845V20.3452H77.8804V3.52845H80.1069ZM90.6606 14.344C86.6236 14.7153 84.0557 15.2944 84.0557 17.0102C84.0557 18.1935 85.0095 18.9816 86.5996 18.9816C88.6799 18.9816 90.6606 18.0765 90.6606 15.1332V14.344ZM9.76676 1.30304C13.987 -0.736183 19.0577 -0.35986 22.8915 2.2771L22.5854 2.42516L20.5328 3.41621C17.3402 1.72653 13.4423 1.76481 10.2874 3.51683C7.13245 5.26884 5.19209 8.47273 5.18727 11.938C5.18745 12.3648 5.21692 12.7912 5.27547 13.2144L22.5916 4.85621L26.1776 3.12487L30.381 1.09263V3.53084L26.1411 5.5786L24.0898 6.56845L5.83491 15.3828L4.81809 15.8735L3.78615 16.3726L0.599609 17.9117V15.4723L1.68195 14.9493C2.50568 14.5516 2.99659 13.7238 2.92683 12.8502C2.90247 12.5485 2.89029 12.2457 2.89029 11.9416C2.8898 7.45237 5.54646 3.34226 9.76676 1.30304ZM65.7907 9.47233C63.8327 9.47233 62.0233 10.4884 61.8268 12.9959H69.5821C69.509 11.2347 68.1633 9.47233 65.7907 9.47233Z" fill="white"/>
</svg>
